# xmcd CD database file
#
# Track frame offsets:
#	150
#	14520
#	31130
#	48115
#	59612
#	71567
#	84460
#	104284
#	137946
#	153248
#	175685
#	191633
#	207390
#	238484
#	252765
#	262247
#	275923
#	287619
#	297999
#	308624
#	318787
#	329207
#
# Disc length: 4720 seconds
#
# Revision: 1
# Processed by: cddbd v1.5.1PL2 Copyright (c) Steve Scherf et al.
# Submitted via: CDex 1.51
#
DISCID=54126e16
DTITLE=Nine Below Zero - Doing their Homework 2
DYEAR=2004
DGENRE=Blues
TTITLE0=Checkin' Uo On My Baby
TTITLE1=So Cold
TTITLE2=Nine Below Zero
TTITLE3=Give Me No Lip Child
TTITLE4=She's All The Rage
TTITLE5=Hip Shake
TTITLE6=The Love You Bring
TTITLE7=Troubled Life
TTITLE8=You Know This
TTITLE9=Line Of Least Reisistance
TTITLE10=Hand To Mouth
TTITLE11=Crawl 'N' Shake
TTITLE12=On The Road Again
TTITLE13=Liquor Lover (Demo)
TTITLE14=Three Times Enough (Demo)
TTITLE15=One Way Street (Demo)
TTITLE16=Homework (Live)
TTITLE17=I Can't Help Myself (Live)
TTITLE18=Treat Her Right (Live)
TTITLE19=Can I Get A Witness (Live)
TTITLE20=The Hoochie Coochie Coo (Live)
TTITLE21=Keep A Knockin' (Live)
EXTD=YEAR: 2004
EXTT0=
EXTT1=
EXTT2=
EXTT3=
EXTT4=
EXTT5=
EXTT6=
EXTT7=
EXTT8=
EXTT9=
EXTT10=
EXTT11=
EXTT12=
EXTT13=
EXTT14=
EXTT15=
EXTT16=
EXTT17=
EXTT18=
EXTT19=
EXTT20=
EXTT21=
PLAYORDER=
